<?xml version="1.0" standalone="no"?>
<!DOCTYPE svg PUBLIC "-//W3C//DTD SVG 20010904//EN"
 "http://www.w3.org/TR/2001/REC-SVG-20010904/DTD/svg10.dtd">
<svg version="1.0" xmlns="http://www.w3.org/2000/svg"
 width="300.000000pt" height="300.000000pt" viewBox="0 0 300.000000 300.000000"
 preserveAspectRatio="xMidYMid meet">
<metadata>
Created by potrace 1.10, written by Peter Selinger 2001-2011
</metadata>
<g transform="translate(0.000000,300.000000) scale(0.100000,-0.100000)"
fill="#000000" stroke="none">
<path d="M1425 2837 c-130 -73 -102 -286 40 -313 l35 -6 0 -133 0 -133 -37 9
c-21 4 -65 18 -98 29 -112 39 -247 70 -306 70 -80 0 -119 -22 -228 -125 -61
-57 -101 -87 -129 -96 -53 -16 -76 -7 -68 26 6 23 3 25 -24 25 -23 0 -30 -4
-30 -20 0 -11 -3 -20 -8 -20 -10 0 -81 48 -110 74 l-24 21 8 -30 c14 -62 57
-116 111 -144 16 -8 23 -21 23 -41 0 -29 -2 -30 -44 -30 -40 0 -44 -3 -50 -27
-4 -16 -68 -215 -142 -443 -74 -228 -141 -433 -148 -455 l-13 -40 -93 -5 -93
-5 66 -62 c127 -118 292 -173 527 -173 189 0 340 35 452 106 47 30 138 112
138 125 0 5 -35 9 -78 9 l-78 0 -76 238 c-42 130 -111 348 -155 484 l-78 248
-42 0 c-38 0 -43 3 -43 23 0 20 5 22 66 23 80 2 137 23 232 85 41 27 89 51
106 55 49 9 110 -12 218 -72 99 -56 194 -94 232 -94 21 0 21 -1 18 -277 l-4
-277 -49 -98 -49 -98 0 -320 0 -320 -145 0 -145 0 0 -60 c0 -59 -2 -64 -110
-241 -60 -99 -110 -183 -110 -185 0 -2 292 -4 650 -4 l650 0 -140 190 c-140
190 -140 190 -140 245 l0 55 -125 0 -125 0 0 314 0 314 -55 113 -55 114 0 268
c0 233 2 267 15 267 35 0 146 45 235 95 165 93 200 94 321 16 89 -58 152 -81
219 -81 47 0 50 -2 50 -25 0 -22 -4 -25 -39 -25 l-40 0 -120 -367 c-66 -203
-137 -421 -158 -485 l-38 -117 -90 -3 -90 -3 55 -55 c121 -122 294 -180 536
-180 136 0 250 18 343 54 84 33 125 60 195 126 l58 55 -83 5 -83 5 -88 275
c-48 151 -118 368 -155 483 l-67 207 -38 0 c-36 0 -38 2 -38 30 0 23 4 30 20
30 11 0 39 17 61 38 39 35 56 62 74 121 l8 25 -33 -27 c-34 -29 -102 -67 -120
-67 -5 0 -10 9 -10 20 0 16 -7 20 -30 20 -27 0 -30 -3 -30 -30 0 -16 -5 -30
-10 -30 -33 0 -92 39 -168 111 -48 45 -105 90 -127 100 -74 34 -161 24 -380
-44 -60 -19 -122 -37 -137 -41 l-28 -6 0 134 0 134 25 6 c34 9 90 60 105 96
18 44 8 130 -19 169 -49 69 -151 91 -226 48z m140 -31 c51 -22 77 -69 72 -130
-4 -41 -10 -55 -40 -83 -48 -43 -79 -50 -129 -27 -109 49 -119 187 -17 237 42
20 70 21 114 3z m-405 -500 c36 -8 115 -30 175 -49 123 -39 236 -47 309 -22
217 73 346 96 410 75 22 -7 71 -44 120 -90 45 -42 94 -85 109 -95 36 -23 34
-34 -5 -26 -39 9 -88 33 -145 73 -48 32 -114 58 -149 58 -38 0 -111 -28 -213
-83 -53 -29 -129 -64 -169 -78 l-72 -26 -84 27 c-47 16 -125 51 -174 78 -171
97 -233 102 -344 30 -79 -52 -136 -78 -168 -77 l-25 0 30 22 c17 12 65 54 107
95 112 105 151 117 288 88z m-536 -195 c19 -21 14 -41 -9 -41 -16 0 -46 40
-39 52 9 14 30 9 48 -11z m1816 -26 c-18 -19 -27 -22 -41 -14 -25 13 -24 23 4
42 16 10 27 12 40 5 18 -9 18 -11 -3 -33z m-1860 -600 l0 -455 -170 0 -170 0
14 38 c18 46 266 807 266 815 0 25 23 57 40 57 20 0 20 -5 20 -455z m172 200
c44 -137 107 -335 140 -439 33 -104 62 -195 65 -203 4 -10 -27 -13 -161 -13
l-166 0 0 456 0 455 21 -3 c18 -3 32 -38 101 -253z m1638 -200 l0 -455 -166 0
c-154 0 -166 1 -161 18 2 9 43 134 90 277 47 143 111 340 143 438 47 142 62
177 76 177 17 0 18 -24 18 -455z m100 444 c0 -7 36 -125 81 -263 44 -138 107
-334 140 -435 32 -101 59 -187 59 -192 0 -5 -72 -9 -160 -9 l-160 0 0 455 c0
448 0 455 20 455 11 0 20 -5 20 -11z m-912 -594 l42 -85 0 -308 c0 -375 -10
-350 145 -354 l100 -3 5 -41 c3 -22 17 -56 30 -75 14 -18 64 -88 112 -153 48
-66 85 -124 82 -128 -8 -13 -1124 -10 -1124 3 0 5 41 78 90 161 62 104 90 161
90 183 0 50 13 55 135 55 162 0 149 -30 155 364 l5 321 32 66 c33 66 42 79 52
79 4 0 26 -38 49 -85z m-1338 -330 c18 -22 316 -22 346 0 19 12 24 12 40 0 29
-22 305 -21 339 1 22 14 26 14 47 0 12 -9 33 -16 46 -16 36 0 22 -21 -38 -58
-118 -71 -247 -101 -430 -102 -183 0 -360 47 -453 120 -36 28 -34 40 6 40 17
0 41 7 51 15 25 19 31 19 46 0z m1814 0 c29 -22 312 -21 344 1 20 14 24 14 44
0 33 -23 303 -23 336 0 20 14 24 14 44 0 12 -9 33 -16 46 -16 57 0 -21 -63
-130 -105 -92 -36 -202 -54 -328 -55 -178 0 -312 31 -424 99 -72 43 -81 61
-34 61 19 0 43 7 54 15 10 8 21 14 24 14 3 0 14 -6 24 -14z"/>
</g>
</svg>
